<svg width="60" height="60" viewBox="0 0 60 60" fill="none" xmlns="http://www.w3.org/2000/svg">
<g clip-path="url(#clip0_1_55)">
<rect width="60" height="60" fill="white"/>
<rect width="60" height="60" fill="url(#paint0_linear_1_55)"/>
<path d="M10.7539 12.6162C10.6275 8.29233 15.3116 5.5215 19.04 7.71484L26.4375 12.0674C29.1247 13.6482 32.4621 13.6309 35.1328 12.0225L41.8008 8.00586C45.5564 5.74432 50.319 8.57109 50.1328 12.9512L49.4961 27.9014C49.44 29.2182 49.6914 30.5302 50.2295 31.7334L52.9502 37.8164C54.1345 40.4643 53.0587 43.5771 50.4922 44.9287L33.2588 54.0039C31.6956 54.8271 29.8323 54.8493 28.25 54.0635L9.9375 44.9678C7.21699 43.6163 6.10726 40.3151 7.45898 37.5947L10.3135 31.8506C10.935 30.5999 11.2391 29.2153 11.1982 27.8193L10.7539 12.6162Z" stroke="white" stroke-width="3"/>
<path d="M32 22C32 18.6863 34.6863 16 38 16C41.3137 16 44 18.6863 44 22V28C44 31.3137 41.3137 34 38 34C34.6863 34 32 31.3137 32 28V22Z" fill="white"/>
<path d="M16 22C16 18.6863 18.6863 16 22 16C25.3137 16 28 18.6863 28 22V28C28 31.3137 25.3137 34 22 34C18.6863 34 16 31.3137 16 28V22Z" fill="white"/>
<path d="M34 21.5C34 19.567 35.567 18 37.5 18C39.433 18 41 19.567 41 21.5V27.5C41 29.433 39.433 31 37.5 31C35.567 31 34 29.433 34 27.5V21.5Z" fill="#958DEC"/>
<path d="M19 21.5C19 19.567 20.567 18 22.5 18C24.433 18 26 19.567 26 21.5V27.5C26 29.433 24.433 31 22.5 31C20.567 31 19 29.433 19 27.5V21.5Z" fill="#958DEC"/>
<path d="M22 20.5C22 19.3954 22.8954 18.5 24 18.5H25C26.1046 18.5 27 19.3954 27 20.5C27 21.6046 26.1046 22.5 25 22.5H24C22.8954 22.5 22 21.6046 22 20.5Z" fill="white"/>
<path d="M33 20C33 18.8954 33.8954 18 35 18H36C37.1046 18 38 18.8954 38 20C38 21.1046 37.1046 22 36 22H35C33.8954 22 33 21.1046 33 20Z" fill="white"/>
<path d="M28.8659 38.6842C29.6627 39.8134 31.3373 39.8134 32.1341 38.6842L33.0381 37.4031C33.973 36.0783 33.0255 34.25 31.404 34.25H29.596C27.9745 34.25 27.027 36.0783 27.9619 37.4031L28.8659 38.6842Z" fill="white"/>
</g>
<defs>
<linearGradient id="paint0_linear_1_55" x1="58.5" y1="1" x2="-12" y2="69" gradientUnits="userSpaceOnUse">
<stop offset="0.3125" stop-color="#FF7A00"/>
<stop offset="0.903846" stop-color="#EC3423"/>
</linearGradient>
<clipPath id="clip0_1_55">
<rect width="60" height="60" fill="white"/>
</clipPath>
</defs>
</svg>
